<svg width="74" height="63" viewBox="0 0 74 63" fill="none" xmlns="http://www.w3.org/2000/svg">
<mask id="mask0_774_1455" style="mask-type:luminance" maskUnits="userSpaceOnUse" x="0" y="0" width="74" height="63">
<path d="M73.1111 0H0V62.8662H73.1111V0Z" fill="white"/>
</mask>
<g mask="url(#mask0_774_1455)">
<path d="M55.9808 55.4748C56.3582 55.4748 56.6648 55.1684 56.6648 54.7911C56.6648 54.4139 56.3582 54.1074 55.9808 54.1074C55.6035 54.1074 55.2969 54.4139 55.2969 54.7911C55.2969 55.1684 55.6035 55.4748 55.9808 55.4748Z" fill="#D4B08D"/>
<path d="M51.1097 55.8645C51.4871 55.8645 51.7937 55.558 51.7937 55.1808C51.7937 54.8036 51.4871 54.4971 51.1097 54.4971C50.7324 54.4971 50.4258 54.8036 50.4258 55.1808C50.4258 55.558 50.7324 55.8645 51.1097 55.8645Z" fill="#D4B08D"/>
<path d="M46.2269 56.0286C46.6043 56.0286 46.9109 55.7221 46.9109 55.3448C46.9109 54.9676 46.6043 54.6611 46.2269 54.6611C45.8496 54.6611 45.543 54.9676 45.543 55.3448C45.543 55.7221 45.8496 56.0286 46.2269 56.0286Z" fill="#D4B08D"/>
<path d="M41.3441 56.1819C41.7214 56.1819 42.028 55.8754 42.028 55.4982C42.028 55.1209 41.7214 54.8145 41.3441 54.8145C40.9668 54.8145 40.6602 55.1209 40.6602 55.4982C40.6602 55.8754 40.9668 56.1819 41.3441 56.1819Z" fill="#D4B08D"/>
<path d="M36.4613 56.3352C36.8386 56.3352 37.1452 56.0287 37.1452 55.6515C37.1452 55.2743 36.8386 54.9678 36.4613 54.9678C36.0839 54.9678 35.7773 55.2743 35.7773 55.6515C35.7773 56.0287 36.0839 56.3352 36.4613 56.3352Z" fill="#D4B08D"/>
<path d="M31.5902 55.0146C31.2128 55.0146 30.9062 55.3211 30.9062 55.6984C30.9062 56.0756 31.2128 56.3821 31.5902 56.3821C31.9675 56.3821 32.2741 56.0756 32.2741 55.6984C32.2741 55.3211 31.9675 55.0146 31.5902 55.0146Z" fill="#D4B08D"/>
<path d="M26.7074 55.0859C26.33 55.0859 26.0234 55.3924 26.0234 55.7697C26.0234 56.1469 26.33 56.4534 26.7074 56.4534C27.0847 56.4534 27.3913 56.1469 27.3913 55.7697C27.3913 55.3924 27.0847 55.0859 26.7074 55.0859Z" fill="#D4B08D"/>
<path d="M21.8285 55.0859C21.4511 55.0859 21.1445 55.3924 21.1445 55.7697C21.1445 56.1469 21.4511 56.4534 21.8285 56.4534C22.2058 56.4534 22.5124 56.1469 22.5124 55.7697C22.5124 55.3924 22.2058 55.0859 21.8285 55.0859Z" fill="#D4B08D"/>
<path d="M16.9574 54.9678C16.58 54.9678 16.2734 55.2743 16.2734 55.6515C16.2734 56.0287 16.58 56.3352 16.9574 56.3352C17.3347 56.3352 17.6413 56.0287 17.6413 55.6515C17.6413 55.2743 17.3347 54.9678 16.9574 54.9678Z" fill="#D4B08D"/>
<path d="M61.9333 55.3925C60.3649 56.5478 58.6787 57.5734 56.9216 58.4221C53.3133 60.1785 49.4572 61.2513 45.4597 61.6049L44.3159 61.711C42.1579 61.8996 39.9764 61.9703 37.8184 61.9114L24.6938 61.5578C21.8519 61.4752 19.0572 60.9448 16.3804 59.9546C15.6021 59.6716 14.8238 59.318 14.0809 58.9408L12.9253 58.3396C11.581 57.6323 10.1541 57.0783 8.6801 56.6892L4.1873 55.4986C3.76279 55.3925 3.36186 55.2157 2.9963 54.98L2.5482 54.697C2.01755 54.3552 1.58125 53.919 1.25107 53.4003C1.51049 53.4121 1.85246 53.4357 2.28877 53.4593C10.1305 53.919 18.0784 54.143 25.9791 54.1312C26.0381 54.1548 26.0971 54.1784 26.1678 54.1784C26.2386 54.1784 26.2975 54.1548 26.3565 54.1312C27.7362 54.1312 29.1158 54.1194 30.4955 54.0958L33.4553 54.0605C44.363 53.9072 55.4005 53.2943 66.2492 52.2333L61.9215 55.4161L61.9333 55.3925ZM26.5687 50.7362V32.3113L29.729 29.8358L33.4789 28.881C34.6817 28.5745 35.9317 28.492 37.1581 28.6452C37.4764 28.6806 37.7948 28.7395 38.1132 28.8103C37.4293 31.2032 36.592 33.5609 35.6133 35.8596C33.8916 39.8793 31.7101 43.6987 29.1512 47.2351L28.5616 48.0485L28.4555 48.0249C28.2432 47.9778 28.031 48.1075 27.9838 48.3314C27.9366 48.5436 28.0781 48.7558 28.2904 48.803L28.6559 48.8855L42.606 51.974V52.8817C39.5519 52.9995 36.4977 53.0703 33.4435 53.1174L30.4837 53.1528C29.1748 53.1764 27.8659 53.1764 26.5687 53.1882V50.748V50.7362ZM7.01741 47.5181C9.25791 43.4629 11.1329 39.1838 12.6187 34.7986C14.2224 30.048 15.378 25.1323 16.0502 20.1577L16.6987 15.36L17.8662 17.2696C20.1892 21.0654 22.3354 25.0263 24.2575 29.0342L25.7787 32.1935V50.3001L20.0949 49.9228L6.19196 49.0034L7.01741 47.5063V47.5181ZM22.6302 9.91384C23.9627 8.05131 25.024 6.01196 25.7787 3.84294V30.3545L24.9768 28.6806C24.4933 27.6668 23.9981 26.6648 23.4792 25.6628C23.2198 25.1677 22.9604 24.6608 22.7009 24.1657C22.4415 23.6706 22.1703 23.1755 21.8991 22.6804C20.9557 20.9476 19.9769 19.2383 18.9628 17.5644C18.8213 17.3286 18.668 17.081 18.5265 16.8453L17.0171 14.3815C19.2576 13.4267 21.1915 11.8942 22.6184 9.90205M27.2998 4.63275C29.5875 8.16919 31.2384 12.0475 32.2054 16.1498C32.6417 18.0005 32.7124 19.8984 32.4176 21.7727C32.1228 23.706 31.4507 25.5449 30.4366 27.2189L29.2455 29.1875L26.5569 31.2858V3.50108L27.2998 4.65632V4.63275ZM28.7267 4.34983C30.5781 5.59937 32.2997 7.07289 33.8091 8.71145C36.4034 11.517 38.3844 14.747 39.7169 18.3188C40.9315 21.5959 41.7924 25.0145 42.264 28.492L42.4527 29.9066L41.4976 29.3289C40.1886 28.5273 38.7618 28.0322 37.2406 27.8436C36.7925 27.7847 36.3562 27.7611 35.9081 27.7611C35.0237 27.7611 34.1275 27.879 33.2549 28.0912L30.3658 28.8338L31.0969 27.6432C32.17 25.875 32.8775 23.9535 33.1841 21.9142C33.4907 19.9338 33.4082 17.9416 32.9601 15.9847C31.9813 11.7882 30.295 7.82734 27.9484 4.22016L27.5357 3.57181L28.7031 4.36162L28.7267 4.34983ZM42.5942 12.3658V25.5214C42.1933 23.5292 41.6744 21.5605 41.0377 19.6273L42.5942 12.354V12.3658ZM46.2734 15.4189C48.5964 17.753 50.377 20.6411 51.4147 23.7649C52.252 26.3112 52.6057 28.9753 52.4524 31.6276C52.2638 31.2032 52.0633 30.7671 51.8628 30.3545L51.0492 28.6452C49.7049 25.8278 48.1129 23.1048 46.3441 20.535L43.4079 16.2912V12.5308L46.2852 15.4189H46.2734ZM46.462 13.5564C49.3157 14.8413 51.8982 16.5977 54.1505 18.7785C56.1316 20.7 57.8061 22.9162 59.115 25.3445C61.1078 29.046 62.6526 32.9833 63.7257 37.0384L64.1148 38.5001C64.6337 40.4452 64.9285 42.4492 64.9874 44.4649C64.4922 43.7576 63.879 43.1447 63.1715 42.6495C62.405 42.1073 61.5559 41.6947 60.6479 41.4118L59.398 41.0228C57.4877 40.4216 55.4948 40.0326 53.5019 39.8675L51.7449 39.7143L52.7354 35.3055C53.6199 31.3919 53.4194 27.3132 52.1576 23.5056C51.0845 20.2638 49.245 17.2696 46.8276 14.8413L44.7994 12.8019L46.4502 13.5446L46.462 13.5564ZM63.1833 48.8973C62.8177 46.7282 62.0984 44.6535 61.0253 42.7321L60.7895 42.3077C61.4734 42.5552 62.1102 42.8853 62.7116 43.3097C63.7139 44.017 64.4922 44.9718 64.9874 46.0917C64.7044 47.1998 64.0795 48.19 63.1833 48.8973ZM43.3961 51.6321V49.357C43.8442 48.8737 45.6248 46.9169 47.4054 44.9718C47.6295 44.7243 47.8535 44.4767 48.0658 44.2409L48.0893 48.3904C48.0893 48.5083 48.1483 48.6261 48.2426 48.6969C48.337 48.7676 48.4549 48.803 48.5728 48.7676L49.3039 48.6026C50.5303 48.3197 51.7803 48.2843 53.0185 48.4847C53.3133 48.5318 53.6081 48.6026 53.8911 48.6733L54.0562 48.9091C54.6104 49.6753 54.9641 50.5712 55.0821 51.5025L54.5868 52.2097C50.8605 52.4691 47.1224 52.6695 43.3961 52.8109V51.6203V51.6321ZM44.5871 22.3268C45.8253 25.9693 46.6979 29.7415 47.1931 33.5609L47.5587 36.4136C47.8417 38.618 48.0068 40.8577 48.054 43.0857C46.6271 44.6535 44.8937 46.5514 43.3961 48.19V18.8257L44.5871 22.3386V22.3268ZM50.8841 39.9029C50.6954 40.1387 49.9053 41.0228 48.8205 42.2252C48.7615 40.2448 48.5964 38.2644 48.3488 36.3075L47.9832 33.4548C47.4879 29.5883 46.5918 25.7571 45.3418 22.0674L44.2923 18.9789L45.6838 20.9829C47.4408 23.5174 48.9973 26.2051 50.3298 28.9871L51.1435 30.6964C51.5444 31.5451 51.9336 32.3939 52.2991 33.2662C52.2166 33.8909 52.0987 34.5157 51.969 35.1405L50.8959 39.9147L50.8841 39.9029ZM55.8132 50.972C55.6835 50.3236 55.4476 49.6871 55.1175 49.1095C55.4594 49.2509 55.7896 49.4042 56.108 49.5928L56.5561 49.8403C56.4853 50.3118 56.2259 50.7244 55.8132 50.972ZM54.8934 40.8224C54.9759 41.1407 55.0585 41.4589 55.141 41.7772C55.6245 43.7223 56.0137 45.7145 56.2967 47.7067L56.4618 48.8737C55.424 48.2961 54.3156 47.9189 53.1482 47.7185C52.5821 47.6241 52.0161 47.577 51.4383 47.577C50.66 47.577 49.8935 47.6595 49.1271 47.8363L48.8794 47.8953L48.8558 43.8166C48.8558 43.6751 48.8558 43.5219 48.8558 43.3804C49.3983 42.7792 49.87 42.2605 50.2473 41.8362C50.9312 41.0817 51.2732 40.6927 51.4383 40.4805L53.4312 40.6574C53.9147 40.7045 54.3981 40.7517 54.8816 40.8224M41.0966 30.0009L42.5824 30.9085V51.1252L29.3988 48.2136L29.788 47.6831C32.394 44.0995 34.5874 40.2212 36.3326 36.1543C37.3349 33.832 38.184 31.439 38.8797 28.9989C39.6462 29.2346 40.3891 29.5765 41.0966 30.0009ZM61.6385 50.583C61.2847 51.1017 60.9428 51.6085 60.8602 51.7382C59.115 51.8797 57.3579 52.0211 55.6127 52.139L55.7778 51.9032L56.2259 51.6321C56.9334 51.196 57.3579 50.4297 57.3579 49.5928C57.3579 49.581 57.3579 49.5574 57.3579 49.5338L57.0749 47.5652C56.7919 45.5494 56.391 43.5337 55.9075 41.5532C55.8486 41.3411 55.8014 41.1407 55.7424 40.9285C56.8981 41.1289 58.0419 41.4 59.1504 41.7536L59.6692 41.9187L60.3178 43.0857C61.4144 45.0661 62.1338 47.1998 62.4521 49.4513C62.3932 49.522 62.3224 49.6163 62.2281 49.746C62.0748 49.9464 61.8743 50.2293 61.6385 50.5712M73.1004 51.0545C73.0768 50.7952 72.841 50.6066 72.5816 50.6419C72.558 50.6419 70.1524 50.8895 67.8529 51.0781L66.4615 51.2195C64.9285 51.3728 63.3955 51.5142 61.8625 51.6439C62.405 50.8423 62.9356 50.0879 63.0889 49.9228L63.4663 49.6399C64.6219 48.7794 65.4355 47.5298 65.7539 46.1271C65.7539 46.1271 65.7539 46.0681 65.7539 46.0445V45.3844C65.7539 42.9914 65.4473 40.6102 64.8342 38.2997L64.445 36.838C63.3601 32.7121 61.78 28.7277 59.7635 24.9673C58.4192 22.4682 56.6976 20.1813 54.6576 18.2009C52.3463 15.9612 49.6813 14.1458 46.745 12.8255L43.3607 11.2931V7.99237C43.3607 7.76839 43.1838 7.59157 42.9598 7.59157C42.7357 7.59157 42.5588 7.76839 42.5588 7.99237V8.5582L40.4952 18.1773C40.4952 18.1773 40.4599 18.083 40.4363 18.0241C39.0684 14.3462 37.0283 11.0337 34.3633 8.1574C32.8068 6.4717 31.0497 4.96281 29.1394 3.6779L26.5216 1.90968V0.400797C26.5216 0.176822 26.3447 0 26.1206 0C25.8966 0 25.7197 0.176822 25.7197 0.400797V1.23776C25.6961 1.33206 25.59 1.70928 25.1419 3.10029C24.4108 5.3754 23.3259 7.52084 21.9344 9.46589C20.5783 11.3638 18.7152 12.8255 16.5572 13.7214L16.2978 13.297C16.1799 13.1084 15.9322 13.0495 15.7554 13.1674C15.5667 13.2853 15.5077 13.5328 15.6257 13.7096L15.9794 14.299L15.2011 20.0634C14.5408 24.9791 13.3969 29.8594 11.805 34.5511C10.3428 38.8891 8.46784 43.1329 6.26272 47.1408L5.26039 48.968L3.09064 48.8265C2.86659 48.8148 2.67791 48.9798 2.66612 49.192C2.65433 49.416 2.81942 49.6046 3.03168 49.6163L5.44906 49.7814L25.7079 51.1252V53.2C17.9015 53.2117 10.048 52.9878 2.28877 52.5398C0.508164 52.4337 0.437411 52.4337 0.402035 52.4337C0.248737 52.4337 0.107232 52.5162 0.0128949 52.6459C-0.081442 52.7756 -0.0932342 52.9406 -0.0342736 53.0821C0.366658 54.0841 1.06239 54.921 1.97039 55.5104L2.41849 55.7933C2.86659 56.0763 3.36186 56.3002 3.86892 56.4299L8.36171 57.6205C9.76497 57.9977 11.1211 58.5282 12.4064 59.1883L13.562 59.7895C14.3403 60.1903 15.154 60.5558 15.9676 60.8623C18.7388 61.876 21.6278 62.4419 24.5759 62.5126L37.7005 62.8662C38.2076 62.878 38.7264 62.8898 39.2335 62.8898C40.9315 62.8898 42.6296 62.8191 44.3041 62.6658L45.4479 62.5597C49.5634 62.1943 53.5255 61.098 57.24 59.2826C59.0442 58.3985 60.7777 57.3494 62.405 56.1588L67.9944 52.0447C70.2585 51.8561 72.5934 51.6203 72.6052 51.6203C72.8646 51.5968 73.0533 51.361 73.0297 51.1017" fill="#D4B08D"/>
</g>
</svg>
