<svg width="17" height="17" viewBox="0 0 17 17" fill="none" xmlns="http://www.w3.org/2000/svg">
<path d="M16.75 8.15695C16.75 12.5142 13.0662 16.0639 8.5 16.0639C3.93384 16.0639 0.25 12.5142 0.25 8.15695C0.25 3.79967 3.93384 0.25 8.5 0.25C13.0662 0.25 16.75 3.79967 16.75 8.15695Z" stroke="#0E2050" stroke-width="0.5"/>
<path d="M8.50005 3.34668C7.66133 3.34668 6.97441 3.9932 6.97441 4.78259C6.97441 5.4663 7.49021 6.04113 8.17313 6.18325V7.03903L6.42954 7.04223C6.38622 7.04166 6.3432 7.04919 6.303 7.06439C6.2628 7.0796 6.22621 7.10217 6.19536 7.1308C6.16451 7.15943 6.14001 7.19354 6.12329 7.23116C6.10657 7.26878 6.09796 7.30915 6.09796 7.34993C6.09796 7.39071 6.10657 7.43108 6.12329 7.46869C6.14001 7.50631 6.16451 7.54043 6.19536 7.56906C6.22621 7.59769 6.2628 7.62026 6.303 7.63546C6.3432 7.65067 6.38622 7.6582 6.42954 7.65762L8.17313 7.65442V12.5647C6.81826 12.4369 5.76334 11.518 5.51007 10.2827L6.04472 10.5839C6.08166 10.6062 6.12298 10.6213 6.16623 10.6282C6.20947 10.6351 6.25376 10.6338 6.29645 10.6243C6.33914 10.6148 6.37936 10.5973 6.41471 10.5728C6.45006 10.5484 6.47983 10.5175 6.50223 10.482C6.52463 10.4465 6.53921 10.4071 6.54511 10.3662C6.551 10.3253 6.54809 10.2837 6.53654 10.2438C6.52499 10.204 6.50504 10.1668 6.47788 10.1343C6.45073 10.1019 6.41691 10.075 6.37846 10.0551L5.28871 9.43969C5.23213 9.40843 5.16687 9.39392 5.10141 9.39803C5.0183 9.40293 4.94031 9.4375 4.88335 9.49468C4.82639 9.55186 4.79477 9.62734 4.79492 9.70572C4.79492 11.6515 6.43795 13.1929 8.50005 13.1929C10.5622 13.1929 12.2052 11.6515 12.2052 9.70572C12.2054 9.65128 12.1903 9.59774 12.1614 9.55058C12.1325 9.50342 12.0909 9.46432 12.0406 9.43727C11.9904 9.41023 11.9335 9.3962 11.8757 9.39663C11.8178 9.39705 11.7611 9.41191 11.7114 9.43969L10.6216 10.0551C10.5832 10.075 10.5494 10.1019 10.5222 10.1343C10.4951 10.1668 10.4751 10.204 10.4636 10.2438C10.452 10.2837 10.4491 10.3253 10.455 10.3662C10.4609 10.4071 10.4755 10.4465 10.4979 10.482C10.5203 10.5175 10.55 10.5484 10.5854 10.5728C10.6207 10.5973 10.661 10.6148 10.7036 10.6243C10.7463 10.6338 10.7906 10.6351 10.8339 10.6282C10.8771 10.6213 10.9184 10.6062 10.9554 10.5839L11.49 10.2827C11.2368 11.518 10.1818 12.4369 8.82697 12.5647V6.18325C9.50989 6.04113 10.0257 5.4663 10.0257 4.78259C10.0257 3.9932 9.33876 3.34668 8.50005 3.34668ZM8.50005 3.96207C8.9854 3.96207 9.37184 4.32579 9.37184 4.78259C9.37184 5.2394 8.9854 5.60311 8.50005 5.60311C8.0147 5.60311 7.62825 5.2394 7.62825 4.78259C7.62825 4.32579 8.0147 3.96207 8.50005 3.96207ZM9.77369 7.03903C9.73075 7.04113 9.68867 7.05116 9.64986 7.06857C9.61104 7.08597 9.57625 7.1104 9.54747 7.14046C9.51868 7.17053 9.49647 7.20563 9.48211 7.24377C9.46774 7.28191 9.4615 7.32234 9.46373 7.36275C9.46597 7.40316 9.47664 7.44277 9.49514 7.47929C9.51364 7.51582 9.5396 7.54856 9.57155 7.57565C9.60349 7.60273 9.64079 7.62363 9.68132 7.63715C9.72185 7.65066 9.7648 7.65653 9.80774 7.65442H10.5706C10.6139 7.655 10.6569 7.64746 10.6971 7.63226C10.7373 7.61705 10.7739 7.59448 10.8047 7.56585C10.8356 7.53722 10.8601 7.50311 10.8768 7.46549C10.8935 7.42787 10.9021 7.3875 10.9021 7.34672C10.9021 7.30595 10.8935 7.26557 10.8768 7.22796C10.8601 7.19034 10.8356 7.15622 10.8047 7.12759C10.7739 7.09897 10.7373 7.07639 10.6971 7.06119C10.6569 7.04598 10.6139 7.03845 10.5706 7.03903H9.80774C9.7964 7.03847 9.78503 7.03847 9.77369 7.03903Z" fill="#0E2050"/>
</svg>
