<svg width="23" height="23" viewBox="0 0 23 23" fill="none" xmlns="http://www.w3.org/2000/svg">
<circle cx="11.5" cy="11.5" r="11" stroke="#0E2050"/>
<path d="M11.5001 4.71814C10.3654 4.71814 9.43602 5.62964 9.43602 6.74255C9.43602 7.70646 10.1339 8.51688 11.0578 8.71725V9.92376L8.69884 9.92828C8.64023 9.92747 8.58204 9.93809 8.52765 9.95952C8.47326 9.98096 8.42376 10.0128 8.38202 10.0531C8.34028 10.0935 8.30713 10.1416 8.28451 10.1946C8.26189 10.2477 8.25024 10.3046 8.25024 10.3621C8.25024 10.4196 8.26189 10.4765 8.28451 10.5295C8.30713 10.5826 8.34028 10.6307 8.38202 10.671C8.42376 10.7114 8.47326 10.7432 8.52765 10.7646C8.58204 10.7861 8.64023 10.7967 8.69884 10.7959L11.0578 10.7914V17.7141C9.22476 17.5338 7.79752 16.2385 7.45485 14.4968L8.17821 14.9215C8.22818 14.9529 8.28409 14.9741 8.3426 14.9839C8.40111 14.9937 8.46103 14.9918 8.51878 14.9784C8.57654 14.965 8.63095 14.9403 8.67878 14.9058C8.72661 14.8714 8.76688 14.8278 8.79719 14.7778C8.8275 14.7277 8.84723 14.6722 8.8552 14.6145C8.86318 14.5568 8.85924 14.4982 8.84361 14.442C8.82799 14.3859 8.801 14.3334 8.76425 14.2876C8.72751 14.2419 8.68176 14.2039 8.62973 14.1759L7.15537 13.3083C7.07883 13.2642 6.99053 13.2438 6.90197 13.2496C6.78952 13.2565 6.684 13.3052 6.60694 13.3858C6.52989 13.4665 6.4871 13.5729 6.48731 13.6834C6.48731 16.4267 8.71022 18.5998 11.5001 18.5998C14.29 18.5998 16.5129 16.4267 16.5129 13.6834C16.5133 13.6066 16.4929 13.5311 16.4538 13.4647C16.4147 13.3982 16.3583 13.343 16.2903 13.3049C16.2224 13.2668 16.1454 13.247 16.0671 13.2476C15.9889 13.2482 15.9122 13.2691 15.8449 13.3083L14.3705 14.1759C14.3185 14.2039 14.2727 14.2419 14.236 14.2876C14.1992 14.3334 14.1723 14.3859 14.1566 14.442C14.141 14.4982 14.1371 14.5568 14.145 14.6145C14.153 14.6722 14.1727 14.7277 14.2031 14.7778C14.2334 14.8278 14.2736 14.8714 14.3215 14.9058C14.3693 14.9403 14.4237 14.965 14.4815 14.9784C14.5392 14.9918 14.5991 14.9937 14.6576 14.9839C14.7162 14.9741 14.7721 14.9529 14.822 14.9215L15.5454 14.4968C15.2027 16.2385 13.7755 17.5338 11.9424 17.7141V8.71725C12.8664 8.51688 13.5642 7.70646 13.5642 6.74255C13.5642 5.62964 12.6349 4.71814 11.5001 4.71814ZM11.5001 5.58574C12.1568 5.58574 12.6796 6.09852 12.6796 6.74255C12.6796 7.38657 12.1568 7.89935 11.5001 7.89935C10.8435 7.89935 10.3206 7.38657 10.3206 6.74255C10.3206 6.09852 10.8435 5.58574 11.5001 5.58574ZM13.2233 9.92376C13.1652 9.92672 13.1083 9.94087 13.0557 9.96541C13.0032 9.98995 12.9562 10.0244 12.9172 10.0668C12.8783 10.1092 12.8482 10.1586 12.8288 10.2124C12.8094 10.2662 12.8009 10.3232 12.8039 10.3802C12.807 10.4371 12.8214 10.493 12.8464 10.5445C12.8715 10.596 12.9066 10.6421 12.9498 10.6803C12.993 10.7185 13.0435 10.748 13.0983 10.767C13.1531 10.7861 13.2113 10.7943 13.2694 10.7914H14.3014C14.36 10.7922 14.4182 10.7816 14.4726 10.7601C14.527 10.7387 14.5765 10.7069 14.6182 10.6665C14.66 10.6261 14.6931 10.578 14.7157 10.525C14.7384 10.472 14.75 10.4151 14.75 10.3576C14.75 10.3001 14.7384 10.2432 14.7157 10.1901C14.6931 10.1371 14.66 10.089 14.6182 10.0486C14.5765 10.0083 14.527 9.97644 14.4726 9.955C14.4182 9.93357 14.36 9.92295 14.3014 9.92376H13.2694C13.254 9.92298 13.2386 9.92298 13.2233 9.92376Z" fill="#0E2050"/>
</svg>
