<svg width="28" height="28" viewBox="0 0 28 28" fill="none" xmlns="http://www.w3.org/2000/svg">
<path d="M13.5561 26.8496C20.7884 26.8496 26.6513 20.9866 26.6513 13.7544C26.6513 6.5221 20.7884 0.65918 13.5561 0.65918C6.32385 0.65918 0.460938 6.5221 0.460938 13.7544C0.460938 20.9866 6.32385 26.8496 13.5561 26.8496Z" stroke="#D4B08D" stroke-miterlimit="10"/>
<path d="M18.337 8.00609V4.85537C18.337 4.85537 11.0387 3.22462 11.0387 9.03377V12.1414H8.06641V15.4583H11.0079V24.5043H15.0078V15.4583C15.0078 15.4583 17.6663 15.526 17.6663 15.4583C17.6663 15.3906 18.1955 12.1414 18.1955 12.1414H14.7986C14.7986 12.1414 14.374 7.90148 16.4971 7.90148C17.7709 7.90148 18.337 8.00609 18.337 8.00609Z" stroke="#D4B08D" stroke-miterlimit="10"/>
</svg>
