<svg width="28" height="28" viewBox="0 0 28 28" fill="none" xmlns="http://www.w3.org/2000/svg">
<path d="M27.2037 13.6556C27.2037 20.9416 21.2961 26.8492 14.0101 26.8492C6.72401 26.8492 0.816406 20.9416 0.816406 13.6556C0.816406 6.36952 6.72401 0.461914 14.0101 0.461914C21.2961 0.461914 27.2037 6.36952 27.2037 13.6556Z" stroke="#D4B08D" stroke-miterlimit="10"/>
<path d="M13.9057 17.071C12.1704 17.071 10.7673 15.668 10.7673 13.9326C10.7673 12.1972 12.1704 10.7942 13.9057 10.7942C15.6411 10.7942 17.0442 12.1972 17.0442 13.9326C17.0442 15.668 15.6411 17.071 13.9057 17.071ZM16.8411 6.78809H10.8166C8.56429 6.78809 6.73047 8.61575 6.73047 10.8742V16.7387C6.73047 18.991 8.55813 20.8248 10.8166 20.8248H16.8411C19.0934 20.8248 20.9272 18.9971 20.9272 16.7387V10.8742C20.9272 8.61575 19.0995 6.78809 16.8411 6.78809Z" stroke="#D4B08D" stroke-miterlimit="10"/>
</svg>
