<svg width="32" height="32" viewBox="0 0 32 32" fill="none" xmlns="http://www.w3.org/2000/svg">
<path d="M12 14.666C12 15.7269 12.4214 16.7443 13.1716 17.4944C13.9217 18.2446 14.9391 18.666 16 18.666C17.0609 18.666 18.0783 18.2446 18.8284 17.4944C19.5786 16.7443 20 15.7269 20 14.666C20 13.6051 19.5786 12.5877 18.8284 11.8376C18.0783 11.0874 17.0609 10.666 16 10.666C14.9391 10.666 13.9217 11.0874 13.1716 11.8376C12.4214 12.5877 12 13.6051 12 14.666Z" stroke="white" stroke-width="2" stroke-linecap="round" stroke-linejoin="round"/>
<path d="M23.5414 22.2089L17.884 27.8663C17.384 28.3658 16.7061 28.6464 15.9994 28.6464C15.2926 28.6464 14.6147 28.3658 14.1147 27.8663L8.45604 22.2089C6.96433 20.7172 5.94848 18.8165 5.53695 16.7474C5.12542 14.6783 5.33669 12.5336 6.14404 10.5846C6.95139 8.63554 8.31857 6.96966 10.0727 5.79762C11.8268 4.62558 13.8891 4 15.9987 4C18.1083 4 20.1706 4.62558 21.9247 5.79762C23.6788 6.96966 25.046 8.63554 25.8534 10.5846C26.6607 12.5336 26.872 14.6783 26.4605 16.7474C26.0489 18.8165 25.0331 20.7172 23.5414 22.2089Z" stroke="white" stroke-width="2" stroke-linecap="round" stroke-linejoin="round"/>
</svg>
