<svg width="40" height="40" viewBox="0 0 40 40" fill="none" xmlns="http://www.w3.org/2000/svg">
<path d="M15 18.333C15 19.6591 15.5268 20.9309 16.4645 21.8685C17.4021 22.8062 18.6739 23.333 20 23.333C21.3261 23.333 22.5979 22.8062 23.5355 21.8685C24.4732 20.9309 25 19.6591 25 18.333C25 17.0069 24.4732 15.7352 23.5355 14.7975C22.5979 13.8598 21.3261 13.333 20 13.333C18.6739 13.333 17.4021 13.8598 16.4645 14.7975C15.5268 15.7352 15 17.0069 15 18.333Z" stroke="#C3976D" stroke-width="2" stroke-linecap="round" stroke-linejoin="round"/>
<path d="M29.4277 27.7612L22.356 34.8328C21.731 35.4572 20.8837 35.808 20.0002 35.808C19.1167 35.808 18.2694 35.4572 17.6444 34.8328L10.571 27.7612C8.70639 25.8965 7.43658 23.5207 6.92217 20.9343C6.40775 18.3479 6.67184 15.667 7.68103 13.2307C8.69022 10.7944 10.3992 8.71208 12.5918 7.24702C14.7845 5.78197 17.3623 5 19.9994 5C22.6364 5 25.2142 5.78197 27.4069 7.24702C29.5995 8.71208 31.3085 10.7944 32.3177 13.2307C33.3269 15.667 33.591 18.3479 33.0765 20.9343C32.5621 23.5207 31.2923 25.8965 29.4277 27.7612Z" stroke="#C3976D" stroke-width="2" stroke-linecap="round" stroke-linejoin="round"/>
</svg>
