<?xml version="1.0" encoding="utf-8"?>
<!-- Generator: Adobe Illustrator 27.3.1, SVG Export Plug-In . SVG Version: 6.00 Build 0)  -->
<svg version="1.1" xmlns="http://www.w3.org/2000/svg" xmlns:xlink="http://www.w3.org/1999/xlink" x="0px" y="0px"
	 viewBox="0 0 800 800" style="enable-background:new 0 0 800 800;" xml:space="preserve">
<style type="text/css">
	.st0{fill:#0E2050;}
</style>
<g id="Capa_1">
</g>
<g id="Isolation_Mode">
	<path class="st0" d="M639.3,467.6c-15.3-15.9-33.7-24.4-53.2-24.4c-19.4,0-38,8.3-53.9,24.3L482.4,517c-4.1-2.2-8.2-4.3-12.1-6.3
		c-5.7-2.8-11-5.5-15.6-8.3c-46.6-29.6-89-68.2-129.6-118.1c-19.7-24.9-32.9-45.8-42.5-67.1c12.9-11.8,24.9-24.1,36.5-35.9
		c4.4-4.4,8.8-9,13.2-13.4c33.1-33.1,33.1-75.9,0-109l-43-43c-4.9-4.9-9.9-9.9-14.6-15c-9.5-9.8-19.4-19.8-29.6-29.3
		c-15.3-15.1-33.6-23.2-52.8-23.2s-37.8,8-53.6,23.2c-0.2,0.2-0.2,0.2-0.3,0.3l-53.6,54c-20.2,20.2-31.7,44.7-34.2,73.2
		c-3.8,46,9.8,88.8,20.2,116.9c25.5,68.8,63.6,132.6,120.5,201c69,82.4,152,147.4,246.8,193.3c36.2,17.2,84.6,37.5,138.6,41
		c3.3,0.2,6.8,0.3,9.9,0.3c36.4,0,66.9-13.1,90.9-39.1c0.2-0.3,0.5-0.5,0.6-0.8c8.2-9.9,17.6-18.9,27.6-28.5
		c6.8-6.5,13.7-13.2,20.5-20.3c15.6-16.2,23.8-35.1,23.8-54.5c0-19.5-8.3-38.3-24.3-54L639.3,467.6z M695.7,633.4
		C695.5,633.4,695.5,633.6,695.7,633.4c-6.1,6.6-12.4,12.6-19.2,19.2c-10.2,9.8-20.6,20-30.4,31.5c-15.9,17-34.7,25-59.2,25
		c-2.4,0-4.9,0-7.2-0.2c-46.8-3-90.3-21.3-122.9-36.9C367.6,629,289.3,567.7,224.2,490.1c-53.7-64.7-89.6-124.6-113.4-188.9
		c-14.6-39.2-20-69.8-17.6-98.6c1.6-18.4,8.7-33.7,21.7-46.8l53.7-53.7c7.7-7.2,15.9-11.2,23.9-11.2c9.9,0,18,6,23,11
		c0.2,0.2,0.3,0.3,0.5,0.5c9.6,9,18.7,18.3,28.4,28.2c4.9,5,9.9,10.1,15,15.3l43,43c16.7,16.7,16.7,32.1,0,48.8
		c-4.6,4.6-9,9.1-13.5,13.5c-13.2,13.5-25.8,26.1-39.5,38.4c-0.3,0.3-0.6,0.5-0.8,0.8c-13.5,13.5-11,26.8-8.2,35.8
		c0.2,0.5,0.3,0.9,0.5,1.4c11.2,27.1,26.9,52.6,50.9,83l0.2,0.2c43.5,53.6,89.3,95.3,139.9,127.3c6.5,4.1,13.1,7.4,19.4,10.6
		c5.7,2.8,11,5.5,15.6,8.3c0.6,0.3,1.3,0.8,1.9,1.1c5.4,2.7,10.4,3.9,15.6,3.9c13.1,0,21.3-8.2,23.9-10.9l53.9-53.9
		c5.4-5.4,13.9-11.8,23.8-11.8c9.8,0,17.8,6.1,22.7,11.5c0.2,0.2,0.2,0.2,0.3,0.3l86.8,86.8C711.7,600.2,711.7,616.7,695.7,633.4z"
		/>
</g>
</svg>
