<svg width="40" height="40" viewBox="0 0 40 40" fill="none" xmlns="http://www.w3.org/2000/svg">
<path d="M5 20C5 23.9782 6.58035 27.7936 9.3934 30.6066C12.2064 33.4196 16.0218 35 20 35C23.9782 35 27.7936 33.4196 30.6066 30.6066C33.4196 27.7936 35 23.9782 35 20C35 16.0218 33.4196 12.2064 30.6066 9.3934C27.7936 6.58035 23.9782 5 20 5C16.0218 5 12.2064 6.58035 9.3934 9.3934C6.58035 12.2064 5 16.0218 5 20Z" stroke="#C3976D" stroke-width="2" stroke-linecap="round" stroke-linejoin="round"/>
<path d="M14.9987 12.5L14.9987 27.5L28.332 20L14.9987 12.5Z" stroke="#C3976D" stroke-width="2" stroke-linecap="round" stroke-linejoin="round"/>
</svg>
