<svg width="88" height="88" viewBox="0 0 88 88" fill="none" xmlns="http://www.w3.org/2000/svg">
<path d="M11 44C11 52.7521 14.4768 61.1458 20.6655 67.3345C26.8542 73.5232 35.2479 77 44 77C52.7521 77 61.1458 73.5232 67.3345 67.3345C73.5232 61.1458 77 52.7521 77 44C77 35.2479 73.5232 26.8542 67.3345 20.6655C61.1458 14.4768 52.7521 11 44 11C35.2479 11 26.8542 14.4768 20.6655 20.6655C14.4768 26.8542 11 35.2479 11 44Z" stroke="white" stroke-width="2" stroke-linecap="round" stroke-linejoin="round"/>
<path d="M34 31L34 57L57 44L34 31Z" fill="white"/>
</svg>
