<svg width="33" height="33" viewBox="0 0 33 33" fill="none" xmlns="http://www.w3.org/2000/svg">
<path d="M4.125 16.5C4.125 19.7821 5.42879 22.9297 7.74955 25.2504C10.0703 27.5712 13.2179 28.875 16.5 28.875C19.7821 28.875 22.9297 27.5712 25.2504 25.2504C27.5712 22.9297 28.875 19.7821 28.875 16.5C28.875 13.2179 27.5712 10.0703 25.2504 7.74955C22.9297 5.42879 19.7821 4.125 16.5 4.125C13.2179 4.125 10.0703 5.42879 7.74955 7.74955C5.42879 10.0703 4.125 13.2179 4.125 16.5Z" stroke="white" stroke-width="2" stroke-linecap="round" stroke-linejoin="round"/>
<path d="M12.373 10.3125L12.373 22.6875L23.373 16.5L12.373 10.3125Z" stroke="white" stroke-width="2" stroke-linecap="round" stroke-linejoin="round"/>
</svg>
