<svg width="21" height="19" viewBox="0 0 21 19" fill="none" xmlns="http://www.w3.org/2000/svg">
<path d="M17.1292 16.0856C15.3325 17.5054 13.052 17.9284 10.8544 17.8528C9.40323 17.7622 6.62519 17.9435 5.28454 17.3242C4.60731 17.0523 3.99918 16.5992 3.28048 16.433C2.74146 16.2518 1.66341 16.146 1.34553 15.5419C6.9569 15.8893 12.6512 15.7835 18.2487 15.2247L17.1292 16.0856ZM6.25202 14.5903L2.63089 14.3335L2.85203 13.9257C4.28942 11.2522 5.06341 8.23128 5.36747 5.18017C6.25202 6.6302 7.026 8.20107 7.73088 9.75683V14.6809L6.25202 14.5752V14.5903ZM6.91543 3.69993C7.26096 3.20148 7.53738 2.64261 7.73088 2.05354V9.27349C7.06747 7.77814 6.29348 6.313 5.4504 4.92339C6.03088 4.66662 6.54226 4.24369 6.90161 3.69993M7.92437 9.53026V1.79676L8.17315 1.96291L8.47722 2.17437C10.7024 3.66972 11.7805 6.41874 12.0431 9.12244C11.2691 8.53337 10.4122 8.45784 9.55526 8.6391C9.18209 8.71462 8.82275 8.88077 8.49104 9.09223L7.91055 9.48495L7.92437 9.53026ZM12.0983 4.37963V7.95939C11.9878 7.41563 11.8634 6.88698 11.6975 6.35832L12.0983 4.37963ZM11.1309 8.91098C11.4488 9.0016 11.8081 9.24328 12.0983 9.42453V14.9226L8.67071 14.1371C9.79022 12.5663 10.6195 10.799 11.1309 8.91098ZM10.2878 10.7839C9.80404 11.9621 9.18209 13.0798 8.44958 14.1069C8.31136 14.0465 8.22844 14.2731 8.38047 14.3184L8.47722 14.3486L12.0983 15.1944V15.4361C10.7162 15.4965 9.30649 15.5116 7.92437 15.5267V9.84746C7.92437 9.84746 8.50486 9.30369 9.15445 9.04692C9.83169 8.77504 10.578 8.79014 10.9236 8.89587C10.7439 9.54537 10.5227 10.1949 10.274 10.8141M15.2081 15.27C14.2406 15.3455 13.2593 15.3908 12.2918 15.4361V14.4996C12.4024 14.3788 13.1073 13.5632 13.5081 13.11L13.7154 12.8835C13.9227 12.6418 14.2683 12.2491 14.3927 12.098C14.6414 12.1282 15.0561 12.1584 15.291 12.1887L15.5122 12.2189C15.8577 12.2793 16.2032 12.3699 16.5349 12.4907C16.8943 13.1251 17.1707 13.8048 17.2536 14.545C17.2398 14.5601 17.226 14.5903 17.1983 14.6205C17.1569 14.6809 17.1016 14.7564 17.0463 14.847C16.9496 14.9981 16.8666 15.134 16.839 15.1642C16.3829 15.1944 15.9268 15.2398 15.4707 15.27H15.2081ZM14.6138 10.1193C14.5723 10.4818 14.3235 11.5694 14.2544 11.9319C14.2544 11.9319 14.0057 12.234 13.7154 12.5663L13.5081 12.7928C13.1349 13.2158 12.6927 13.7293 12.2918 14.1824V5.79945V5.42184V4.39473L13.0382 5.18017C14.1301 6.32811 14.7382 7.9745 14.6414 9.59068L14.6 10.0438L14.6138 10.1193ZM13.0935 4.75724C16.1341 6.14686 17.613 9.84746 17.917 13.1704C17.1569 12.1131 15.6227 12.0074 14.4756 11.8715C15.3048 9.03181 14.8211 6.52447 12.665 4.54578L13.0935 4.74214V4.75724ZM17.4471 14.3788C17.3504 13.7444 17.1292 13.1402 16.8252 12.5814C17.2951 12.7626 17.7097 13.1251 17.917 13.6085C17.8479 13.9106 17.6821 14.1824 17.4471 14.3788ZM19.9073 14.847C19.4788 14.8924 17.7788 15.0585 17.1016 15.1189C17.3089 14.8168 17.3504 14.696 17.5162 14.5752C17.8479 14.3033 18.1382 13.8804 18.1105 13.4121C18.1105 12.6267 17.9723 11.8412 17.765 11.086C16.9496 7.80835 15.374 5.2859 12.278 4.13796V3.23169C12.278 3.09575 12.0707 3.09575 12.0707 3.23169V3.38273L11.5317 5.99581C10.8959 4.09264 9.5138 2.5822 7.89673 1.57019V1.10196C7.89673 0.966015 7.68942 0.966015 7.68942 1.10196C7.68942 1.44936 7.70324 1.2681 7.53738 1.84208C7.15039 3.05043 6.47316 4.25879 5.29836 4.72703L5.22926 4.6062C5.16015 4.48536 4.98048 4.6062 5.04958 4.71193L5.14633 4.87808C4.82845 8.18596 3.97154 11.4636 2.35447 14.3184C2.35447 14.3184 1.7878 14.2731 1.7878 14.2882C1.64959 14.2882 1.64959 14.4996 1.7878 14.4996C2.00894 14.5147 7.31625 14.8773 7.68942 14.9075V15.4663C5.56097 15.4663 3.19756 15.3908 1.11057 15.2549C1.06911 15.2549 1.02764 15.2851 1 15.3153C1.02764 15.8439 1.58049 16.1913 2.00894 16.3424C2.67235 16.5236 3.62601 16.7502 4.23414 17.0976C5.93413 18.2607 8.87803 17.9888 10.813 18.0945C14.1162 18.2153 16.1341 17.3242 18.691 15.1491C19.3959 15.0434 19.9902 15.1491 20.004 14.8924H20.0178C20.0178 14.8168 19.9626 14.7715 19.8935 14.7715M5.40893 15.9497C5.50568 15.9497 5.58861 16.0252 5.58861 16.1309C5.58861 16.2367 5.50568 16.3122 5.40893 16.3122C5.31219 16.3122 5.22926 16.2216 5.22926 16.1309C5.22926 16.0403 5.31219 15.9497 5.40893 15.9497ZM6.68047 15.9799C6.77722 15.9799 6.86015 16.0705 6.86015 16.1611C6.86015 16.2518 6.77722 16.3424 6.68047 16.3424C6.58373 16.3424 6.5008 16.2518 6.5008 16.1611C6.5008 16.0705 6.58373 15.9799 6.68047 15.9799ZM7.95202 15.9799C8.04876 15.9799 8.13169 16.0705 8.13169 16.1611C8.13169 16.2518 8.04876 16.3424 7.95202 16.3424C7.85527 16.3424 7.77234 16.2518 7.77234 16.1611C7.77234 16.0705 7.85527 15.9799 7.95202 15.9799ZM9.22356 15.9648C9.32031 15.9648 9.40323 16.0554 9.40323 16.146C9.40323 16.2367 9.32031 16.3273 9.22356 16.3273C9.12681 16.3273 9.04388 16.2367 9.04388 16.146C9.04388 16.0554 9.12681 15.9648 9.22356 15.9648ZM10.4951 15.9648C10.5918 15.9648 10.6748 16.0403 10.6748 16.146C10.6748 16.2518 10.5918 16.3273 10.4951 16.3273C10.3984 16.3273 10.3154 16.2367 10.3154 16.146C10.3154 16.0554 10.3984 15.9648 10.4951 15.9648ZM11.7666 15.9195C11.8634 15.9195 11.9463 16.0101 11.9463 16.1007C11.9463 16.1913 11.8634 16.282 11.7666 16.282C11.6699 16.282 11.587 16.1913 11.587 16.1007C11.587 16.0101 11.6699 15.9195 11.7666 15.9195ZM13.0382 15.8741C13.1349 15.8741 13.2179 15.9648 13.2179 16.0554C13.2179 16.146 13.1349 16.2367 13.0382 16.2367C12.9414 16.2367 12.8585 16.146 12.8585 16.0554C12.8585 15.9648 12.9414 15.8741 13.0382 15.8741ZM14.3097 15.8288C14.4065 15.8288 14.4894 15.9195 14.4894 16.0101C14.4894 16.1007 14.4065 16.1913 14.3097 16.1913C14.213 16.1913 14.1301 16.1158 14.1301 16.0101C14.1301 15.9044 14.213 15.8288 14.3097 15.8288ZM15.5813 15.7231C15.678 15.7231 15.7609 15.8137 15.7609 15.9044C15.7609 15.995 15.678 16.0856 15.5813 16.0856C15.4845 16.0856 15.4016 15.995 15.4016 15.9044C15.4016 15.8137 15.4845 15.7231 15.5813 15.7231ZM11.6561 18.1096H10.8268C10.9512 18.1096 11.0894 18.1096 11.2138 18.1096C11.352 18.1096 11.504 18.1096 11.6423 18.1096M1.01382 15.3304C1.01382 15.3304 1 15.3757 1 15.3908C1 15.4059 1 15.421 1 15.4361L1 15.3153L1.01382 15.3304Z" fill="#C3976D"/>
<path d="M6.91543 3.69993C7.26096 3.20148 7.53738 2.64261 7.73088 2.05354V9.27349C7.06747 7.77814 6.29348 6.313 5.4504 4.92339C6.03088 4.66662 6.54226 4.24369 6.90161 3.69993M10.2878 10.7839C9.80404 11.9621 9.18209 13.0798 8.44958 14.1069C8.31136 14.0465 8.22844 14.2731 8.38047 14.3184L8.47722 14.3486L12.0983 15.1944V15.4361C10.7162 15.4965 9.30648 15.5116 7.92437 15.5267V9.84746C7.92437 9.84746 8.50486 9.30369 9.15445 9.04692C9.83169 8.77504 10.578 8.79014 10.9236 8.89587C10.7439 9.54537 10.5227 10.1949 10.274 10.8141M19.9073 14.847C19.4788 14.8924 17.7788 15.0585 17.1016 15.1189C17.3089 14.8168 17.3504 14.696 17.5162 14.5752C17.8479 14.3033 18.1382 13.8804 18.1105 13.4121C18.1105 12.6267 17.9723 11.8412 17.765 11.086C16.9496 7.80835 15.3739 5.2859 12.278 4.13796V3.23169C12.278 3.09575 12.0707 3.09575 12.0707 3.23169V3.38273L11.5317 5.99581C10.8959 4.09264 9.5138 2.5822 7.89673 1.57019V1.10196C7.89673 0.966015 7.68942 0.966015 7.68942 1.10196C7.68942 1.44936 7.70324 1.2681 7.53738 1.84208C7.15039 3.05043 6.47316 4.25879 5.29836 4.72703L5.22926 4.6062C5.16015 4.48536 4.98048 4.6062 5.04958 4.71193L5.14633 4.87808C4.82845 8.18596 3.97154 11.4636 2.35447 14.3184C2.35447 14.3184 1.7878 14.2731 1.7878 14.2882C1.64959 14.2882 1.64959 14.4996 1.7878 14.4996C2.00894 14.5147 7.31625 14.8773 7.68942 14.9075V15.4663C5.56097 15.4663 3.19756 15.3908 1.11057 15.2549C1.06911 15.2549 1.02764 15.2851 1 15.3153M1 15.3153C1.02764 15.8439 1.58049 16.1913 2.00894 16.3424C2.67235 16.5236 3.62601 16.7502 4.23414 17.0976C5.93413 18.2607 8.87803 17.9888 10.813 18.0945C14.1162 18.2153 16.1341 17.3242 18.691 15.1491C19.3959 15.0434 19.9902 15.1491 20.004 14.8924H20.0178C20.0178 14.8168 19.9626 14.7715 19.8935 14.7715M1 15.3153L1 15.4361C1 15.421 1 15.4059 1 15.3908C1 15.3757 1.01382 15.3304 1.01382 15.3304L1 15.3153ZM11.6561 18.1096H10.8268C10.9512 18.1096 11.0894 18.1096 11.2138 18.1096C11.352 18.1096 11.504 18.1096 11.6423 18.1096M17.1292 16.0856C15.3325 17.5054 13.052 17.9284 10.8544 17.8528C9.40323 17.7622 6.62519 17.9435 5.28454 17.3242C4.60731 17.0523 3.99918 16.5992 3.28048 16.433C2.74146 16.2518 1.66341 16.146 1.34553 15.5419C6.9569 15.8893 12.6512 15.7835 18.2487 15.2247L17.1292 16.0856ZM6.25202 14.5903L2.63089 14.3335L2.85203 13.9257C4.28942 11.2522 5.06341 8.23128 5.36747 5.18017C6.25202 6.6302 7.026 8.20107 7.73088 9.75683V14.6809L6.25202 14.5752V14.5903ZM7.92437 9.53026V1.79676L8.17315 1.96291L8.47722 2.17437C10.7024 3.66972 11.7805 6.41874 12.0431 9.12244C11.2691 8.53337 10.4122 8.45784 9.55526 8.6391C9.18209 8.71462 8.82275 8.88077 8.49104 9.09223L7.91055 9.48495L7.92437 9.53026ZM12.0983 4.37963V7.95939C11.9878 7.41563 11.8634 6.88698 11.6975 6.35832L12.0983 4.37963ZM11.1309 8.91098C11.4488 9.0016 11.8081 9.24328 12.0983 9.42453V14.9226L8.67071 14.1371C9.79022 12.5663 10.6195 10.799 11.1309 8.91098ZM15.2081 15.27C14.2406 15.3455 13.2593 15.3908 12.2918 15.4361V14.4996C12.4024 14.3788 13.1073 13.5632 13.5081 13.11L13.7154 12.8835C13.9227 12.6418 14.2683 12.2491 14.3927 12.098C14.6414 12.1282 15.0561 12.1584 15.291 12.1887L15.5122 12.2189C15.8577 12.2793 16.2032 12.3699 16.5349 12.4907C16.8943 13.1251 17.1707 13.8048 17.2536 14.545C17.2398 14.5601 17.226 14.5903 17.1983 14.6205C17.1569 14.6809 17.1016 14.7564 17.0463 14.847C16.9496 14.9981 16.8666 15.134 16.839 15.1642C16.3829 15.1944 15.9268 15.2398 15.4707 15.27H15.2081ZM14.6138 10.1193C14.5723 10.4818 14.3235 11.5694 14.2544 11.9319C14.2544 11.9319 14.0057 12.234 13.7154 12.5663L13.5081 12.7928C13.1349 13.2158 12.6927 13.7293 12.2918 14.1824V5.79945V5.42184V4.39473L13.0382 5.18017C14.1301 6.32811 14.7382 7.9745 14.6414 9.59068L14.6 10.0438L14.6138 10.1193ZM13.0935 4.75724C16.1341 6.14686 17.613 9.84746 17.917 13.1704C17.1569 12.1131 15.6227 12.0074 14.4756 11.8715C15.3048 9.03181 14.8211 6.52447 12.665 4.54578L13.0935 4.74214V4.75724ZM17.4471 14.3788C17.3504 13.7444 17.1292 13.1402 16.8252 12.5814C17.2951 12.7626 17.7097 13.1251 17.917 13.6085C17.8479 13.9106 17.6821 14.1824 17.4471 14.3788ZM5.40893 15.9497C5.50568 15.9497 5.58861 16.0252 5.58861 16.1309C5.58861 16.2367 5.50568 16.3122 5.40893 16.3122C5.31219 16.3122 5.22926 16.2216 5.22926 16.1309C5.22926 16.0403 5.31219 15.9497 5.40893 15.9497ZM6.68047 15.9799C6.77722 15.9799 6.86015 16.0705 6.86015 16.1611C6.86015 16.2518 6.77722 16.3424 6.68047 16.3424C6.58373 16.3424 6.5008 16.2518 6.5008 16.1611C6.5008 16.0705 6.58373 15.9799 6.68047 15.9799ZM7.95202 15.9799C8.04876 15.9799 8.13169 16.0705 8.13169 16.1611C8.13169 16.2518 8.04876 16.3424 7.95202 16.3424C7.85527 16.3424 7.77234 16.2518 7.77234 16.1611C7.77234 16.0705 7.85527 15.9799 7.95202 15.9799ZM9.22356 15.9648C9.32031 15.9648 9.40323 16.0554 9.40323 16.146C9.40323 16.2367 9.32031 16.3273 9.22356 16.3273C9.12681 16.3273 9.04388 16.2367 9.04388 16.146C9.04388 16.0554 9.12681 15.9648 9.22356 15.9648ZM10.4951 15.9648C10.5918 15.9648 10.6748 16.0403 10.6748 16.146C10.6748 16.2518 10.5918 16.3273 10.4951 16.3273C10.3984 16.3273 10.3154 16.2367 10.3154 16.146C10.3154 16.0554 10.3984 15.9648 10.4951 15.9648ZM11.7666 15.9195C11.8634 15.9195 11.9463 16.0101 11.9463 16.1007C11.9463 16.1913 11.8634 16.282 11.7666 16.282C11.6699 16.282 11.587 16.1913 11.587 16.1007C11.587 16.0101 11.6699 15.9195 11.7666 15.9195ZM13.0382 15.8741C13.1349 15.8741 13.2179 15.9648 13.2179 16.0554C13.2179 16.146 13.1349 16.2367 13.0382 16.2367C12.9414 16.2367 12.8585 16.146 12.8585 16.0554C12.8585 15.9648 12.9414 15.8741 13.0382 15.8741ZM14.3097 15.8288C14.4065 15.8288 14.4894 15.9195 14.4894 16.0101C14.4894 16.1007 14.4065 16.1913 14.3097 16.1913C14.213 16.1913 14.1301 16.1158 14.1301 16.0101C14.1301 15.9044 14.213 15.8288 14.3097 15.8288ZM15.5813 15.7231C15.678 15.7231 15.7609 15.8137 15.7609 15.9044C15.7609 15.995 15.678 16.0856 15.5813 16.0856C15.4845 16.0856 15.4016 15.995 15.4016 15.9044C15.4016 15.8137 15.4845 15.7231 15.5813 15.7231Z" stroke="#C3976D" stroke-width="0.3"/>
</svg>
