<svg width="29" height="28" viewBox="0 0 29 28" fill="none" xmlns="http://www.w3.org/2000/svg">
<path d="M27.7623 13.6556C27.7623 20.9416 21.8547 26.8492 14.5686 26.8492C7.2826 26.8492 1.375 20.9416 1.375 13.6556C1.375 6.36952 7.2826 0.461914 14.5686 0.461914C21.8547 0.461914 27.7623 6.36952 27.7623 13.6556Z" stroke="#0E2050" stroke-miterlimit="10"/>
<path d="M12.7926 16.08V11.6124L16.7679 13.6985C16.7679 13.6985 12.7926 16 12.7926 16.08ZM19.7463 8.6709H8.94646C7.82647 8.6709 6.92188 9.58165 6.92188 10.7016V16.8246C6.92188 17.9446 7.83263 18.8492 8.94646 18.8492H19.7463C20.8663 18.8492 21.7709 17.9385 21.7709 16.8246V10.7016C21.7709 9.58165 20.8601 8.6709 19.7463 8.6709Z" stroke="#0E2050" stroke-miterlimit="10"/>
</svg>
